<svg xmlns="http://www.w3.org/2000/svg" xmlns:xlink="http://www.w3.org/1999/xlink" width="256" zoomAndPan="magnify" viewBox="0 0 192 191.999996" height="256" preserveAspectRatio="xMidYMid meet" version="1.0"><defs><style id="style">@media (prefers-color-scheme: dark) { .fill-shield { fill: #fff; } .fill-lock { fill: #000; } } @media (prefers-color-scheme: light) { .fill-shield { fill: #000; } .fill-lock { fill: #fff; } }</style><clipPath id="edd995346c"><path d="M 23 5.933594 L 168.957031 5.933594 L 168.957031 185.933594 L 23 185.933594 Z M 23 5.933594 " clip-rule="nonzero"/></clipPath><clipPath id="e79f9ea517"><path d="M 57.917969 37.988281 L 134.417969 37.988281 L 134.417969 142.988281 L 57.917969 142.988281 Z M 57.917969 37.988281 " clip-rule="nonzero"/></clipPath></defs><g clip-path="url(#edd995346c)"><path fill="#000" class="fill-shield" d="M 95.871094 5.90625 L 23.011719 24.566406 L 23.011719 88.269531 C 23.011719 128.570312 54.234375 174.085938 95.871094 185.898438 C 116.679688 179.996094 134.949219 165.632812 147.902344 147.796875 C 160.855469 129.960938 168.71875 108.417969 168.71875 88.269531 L 168.71875 24.566406 Z M 161.09375 88.269531 C 161.09375 106.304688 154.035156 126.363281 141.734375 143.304688 C 129.457031 160.210938 113.238281 172.433594 95.871094 177.925781 C 78.523438 172.441406 62.304688 160.203125 49.996094 143.269531 C 37.691406 126.355469 30.640625 106.304688 30.640625 88.269531 L 30.640625 30.5 L 95.871094 13.792969 L 161.09375 30.5 Z M 95.871094 23.066406 L 39.609375 37.476562 L 39.609375 88.269531 C 39.609375 104.445312 46.039062 122.566406 57.246094 137.980469 C 67.742188 152.417969 81.367188 163.140625 95.871094 168.4375 C 110.390625 163.136719 124.015625 152.425781 134.480469 138.015625 C 145.691406 122.582031 152.121094 104.445312 152.121094 88.269531 L 152.121094 37.476562 Z M 95.871094 23.066406 " fill-opacity="1" fill-rule="nonzero"/></g><g clip-path="url(#e79f9ea517)"><path fill="#fff" class="fill-lock" d="M 95.996094 37.988281 C 80.179688 37.988281 67.445312 50.722656 67.445312 66.542969 L 67.445312 79.488281 C 61.535156 86.195312 57.925781 94.972656 57.925781 104.613281 C 57.925781 125.636719 74.972656 142.683594 95.996094 142.683594 C 117.023438 142.683594 134.066406 125.636719 134.066406 104.613281 C 134.066406 94.972656 130.457031 86.195312 124.550781 79.488281 L 124.550781 66.542969 C 124.550781 50.722656 111.8125 37.988281 95.996094 37.988281 Z M 95.996094 47.503906 C 106.828125 47.503906 115.03125 55.710938 115.03125 66.542969 L 115.03125 71.679688 C 109.425781 68.433594 102.941406 66.542969 95.996094 66.542969 C 89.050781 66.542969 82.566406 68.433594 76.960938 71.679688 L 76.960938 66.542969 C 76.960938 55.710938 85.164062 47.503906 95.996094 47.503906 Z M 95.996094 90.335938 C 101.230469 90.335938 105.515625 94.617188 105.515625 99.851562 C 105.515625 103.351562 103.582031 106.386719 100.753906 108.042969 L 100.753906 123.648438 L 91.238281 123.648438 L 91.238281 108.042969 C 88.410156 106.386719 86.480469 103.351562 86.480469 99.851562 C 86.480469 94.617188 90.761719 90.335938 95.996094 90.335938 Z M 95.996094 90.335938 " fill-opacity="1" fill-rule="nonzero"/></g></svg>